
        <svg xmlns="http://www.w3.org/2000/svg" xmlns:xlink="http://www.w3.org/1999/xlink" version="1.1" width="3214.285714285714" 
        height="2500.13168754662" viewBox="0 0 3214.285714285714 2500.13168754662">
			
			<g transform="scale(10.714285714285714) translate(10, 10)">
				<defs id="SvgjsDefs4714"><linearGradient id="SvgjsLinearGradient4721"><stop id="SvgjsStop4722" stop-color="#00ff8f" offset="0"></stop><stop id="SvgjsStop4723" stop-color="#00a1ff" offset="1"></stop></linearGradient><linearGradient id="SvgjsLinearGradient4724"><stop id="SvgjsStop4725" stop-color="#00ddff" offset="0"></stop><stop id="SvgjsStop4726" stop-color="#ff00d4" offset="1"></stop></linearGradient><linearGradient id="SvgjsLinearGradient4727"><stop id="SvgjsStop4728" stop-color="#00ddff" offset="0"></stop><stop id="SvgjsStop4729" stop-color="#ff00d4" offset="1"></stop></linearGradient></defs><g id="SvgjsG4715" featureKey="mugSzh-0" transform="matrix(2.4176539479133257,0,0,2.4176539479133257,68.01946318225986,0.04991893249294931)" fill="url(#SvgjsLinearGradient4721)"><title xmlns="http://www.w3.org/2000/svg"></title><desc xmlns="http://www.w3.org/2000/svg"></desc><path xmlns="http://www.w3.org/2000/svg" d="M59.3,22.5C59.4,22.5,59.4,22.4,59.3,22.5C61,14.6,59.4,7.9,55.1,4c-3.4-3.1-8.4-4.5-13.2-3.7C37,1,32.9,3.9,30,8.3  C27.1,3.9,23,1,18.2,0.2C13.3-0.6,8.3,0.8,4.9,4C0.6,7.9-1,14.6,0.6,22.4c0.1,0.5,0.5,0.8,1,0.8c0,0,0.1,0,0.1,0  c0.3,0,0.5-0.1,0.7-0.3l3.5-3.5C6,19.4,6,19.3,6,19.2c0.4-0.3,0.8-0.4,1.3-0.4c0.5,0,1,0.2,1.3,0.6c0.4,0.4,0.6,0.9,0.6,1.5  c0,0.5-0.2,1-0.6,1.3c-0.1,0.1-0.2,0.2-0.3,0.4L3,28c-0.4,0.4-0.4,1,0,1.4c0.2,0.2,0.4,0.3,0.7,0.3c0.3,0,0.5-0.1,0.7-0.3l5.7-5.8  l3.5-3.5c0.4-0.4,0.9-0.6,1.5-0.6c0.5,0,1,0.2,1.3,0.6c0.4,0.4,0.6,0.9,0.6,1.5c0,0.5-0.2,1-0.6,1.3c-0.1,0.1-0.2,0.2-0.2,0.4  l-1.1,1.2l-9.3,9.2c-0.4,0.4-0.4,1,0,1.4c0.2,0.2,0.5,0.3,0.7,0.3c0.3,0,0.5-0.1,0.7-0.3l9.3-9.2c0,0,0,0,0,0c0.8-0.8,2.1-0.7,2.8,0  c0.4,0.4,0.6,0.9,0.6,1.5c0,0.5-0.2,1-0.6,1.3c0,0,0,0,0,0c0,0,0,0,0,0l-2.1,2.1c0,0,0,0,0,0c0,0,0,0,0,0l-7.8,7.8  c-0.4,0.4-0.4,1,0,1.4c0.2,0.2,0.5,0.3,0.7,0.3s0.5-0.1,0.7-0.3l7.8-7.8c0,0,0,0,0,0c0.5-0.5,1.3-0.7,1.9-0.5  c0.7,0.2,1.3,0.8,1.4,1.4c0.2,0.7,0,1.4-0.5,1.9c-0.1,0.1-0.2,0.2-0.2,0.3l-7.6,7.6c-0.4,0.4-0.4,1,0,1.4c0.1,0.1,0.3,0.2,0.5,0.3  c4.6,4.2,9.6,7.9,15.4,11.4C29.6,56,29.8,56,30,56s0.4,0,0.5-0.1c5.9-3.6,11.1-7.4,15.8-11.7c0,0,0,0,0,0c0,0,0,0,0,0  c0,0,0.1-0.1,0.1-0.1c0-0.1,0.1-0.1,0.1-0.2c0-0.1,0-0.1,0-0.2c0-0.1,0-0.1,0-0.2c0-0.1,0-0.1,0-0.2c0-0.1,0-0.1,0-0.2  c0-0.1-0.1-0.1-0.1-0.2c0-0.1-0.1-0.1-0.1-0.2c0,0,0,0,0,0c0,0,0,0,0,0L38.6,35c0,0,0,0,0,0c-0.5-0.5-0.7-1.3-0.5-1.9  c0.2-0.7,0.8-1.3,1.4-1.4c0.7-0.2,1.4,0,1.9,0.5c0.1,0.1,0.2,0.2,0.3,0.2l7.4,7.5c0.2,0.2,0.5,0.3,0.7,0.3c0.3,0,0.5-0.1,0.7-0.3  c0.4-0.4,0.4-1,0-1.4l-7.7-7.8l-2.1-2.1c-0.8-0.8-0.7-2.1,0-2.8c0.4-0.4,0.9-0.6,1.5-0.6c0.5,0,1,0.2,1.3,0.5c0,0,0,0,0,0l0,0  l9.3,9.2c0.2,0.2,0.4,0.3,0.7,0.3c0.3,0,0.5-0.1,0.7-0.3c0.4-0.4,0.4-1,0-1.4l-9.3-9.2l-1.4-1.5c0-0.1-0.1-0.1-0.2-0.1  c-0.6-0.8-0.5-1.9,0.2-2.6c0.8-0.8,1.8-0.8,2.7-0.2c0,0.1,0.1,0.1,0.1,0.2l3.1,3.1c0.1,0.1,0.1,0.2,0.2,0.3l0.1,0.1  c0.1,0.1,0.2,0.2,0.3,0.2l5.5,5.5c0.2,0.2,0.5,0.3,0.7,0.3s0.5-0.1,0.7-0.3c0.4-0.4,0.4-1,0-1.4l-6.1-6.1c-0.5-0.8-0.3-1.8,0.4-2.5  c0.9-0.9,2.1-0.6,2.8,0c0.1,0.1,0.2,0.1,0.3,0.2l3.3,3.3c0,0,0,0,0.1,0c0.1,0,0.1,0.1,0.2,0.1c0.1,0,0.1,0.1,0.2,0.1  c0,0,0.1,0,0.1,0c0.1,0,0.1,0,0.2,0c0,0,0,0,0,0c0,0,0,0,0,0c0,0,0,0,0,0c0.1,0,0.2,0,0.4-0.1c0,0,0.1,0,0.1-0.1  c0.1,0,0.2-0.1,0.2-0.1c0,0,0,0,0,0c0,0,0-0.1,0-0.1c0.1-0.1,0.1-0.1,0.1-0.2C59.3,22.6,59.3,22.5,59.3,22.5z M49.9,18  c-0.5,0.5-0.9,1.2-1.1,1.8L48,19c-0.1-0.1-0.1-0.2-0.2-0.3c-1.6-1.5-4-1.4-5.6,0.1c-1.2,1.2-1.5,3-0.8,4.5c-0.8,0.2-1.5,0.5-2.1,1.1  c-1.5,1.5-1.5,3.8-0.2,5.3c0,0,0,0,0,0c-1.3,0.3-2.4,1.4-2.9,2.8c-0.4,1.3,0,2.7,0.9,3.7c0,0,0,0,0,0.1l0.1,0.1c0,0,0,0,0,0  c0,0,0,0,0,0l6.9,6.9c-4.2,3.8-8.9,7.2-14.1,10.5c-5.3-3.2-9.9-6.7-14.1-10.5l7-7c0.1-0.1,0.2-0.2,0.2-0.3c0.9-1,1.2-2.4,0.9-3.6  c-0.3-1.3-1.4-2.4-2.8-2.9c0,0,0,0,0,0c0.5-0.6,0.8-1.4,0.9-2.3c0-1.1-0.4-2.1-1.2-2.9c-0.6-0.6-1.4-1-2.1-1.1  c0.3-0.5,0.4-1.1,0.4-1.7c0-1.1-0.4-2.1-1.2-2.9c-0.7-0.8-1.7-1.2-2.7-1.2c-1.1,0-2.1,0.4-2.9,1.2l-1.1,1.2c-0.2-0.7-0.5-1.3-1-1.8  c-0.7-0.8-1.7-1.2-2.7-1.2c-1.1,0-2.1,0.4-2.9,1.2c-0.1,0.1-0.1,0.2-0.2,0.3l-1.9,1.9c-0.9-6.3,0.5-11.6,4-14.8  c2.9-2.7,7.4-3.9,11.6-3.2C22.5,3,26.5,6,29.1,10.8c0.4,0.6,1.4,0.6,1.8,0C33.5,6,37.5,3,42.2,2.2c4.2-0.7,8.6,0.5,11.6,3.2  c3.5,3.1,4.9,8.4,4,14.7L55.6,18c-0.1-0.1-0.3-0.2-0.4-0.2C53.6,16.5,51.3,16.5,49.9,18z"></path></g><g id="SvgjsG4716" featureKey="PPkF4s-0" transform="matrix(2.085388502206638,0,0,2.085388502206638,-1.792182452401641,144.57222220075602)" fill="url(#SvgjsLinearGradient4724)"><path d="M7.9297 20.19531 c-4.0723 0 -7.0703 -2.8125 -7.0703 -7.2168 c0 -4.4629 3.0664 -7.2852 7.2168 -7.2852 c2.7246 0 4.9805 1.2012 6.2109 3.3203 l-2.5684 1.3672 c-0.74219 -1.4453 -2.0703 -2.1387 -3.6426 -2.1387 c-2.4414 0 -4.2773 1.6797 -4.2773 4.668 c0 2.8809 1.7188 4.7363 4.3848 4.7363 c1.8066 0 3.4668 -0.89844 3.8672 -2.959 l-3.8574 0 l0 -2.3535 l6.6309 0 l0 7.666 l-2.3047 0 l0 -1.9531 c-0.9082 1.3379 -2.4316 2.1484 -4.5898 2.1484 z M20.18555625 11.5527 c0.50781 -0.88867 1.8262 -1.709 3.2813 -1.709 l0 2.5098 c-2.1289 0 -3.1445 0.625 -3.1445 2.7539 l0 4.8926 l-2.832 0 l0 -10.039 l2.6953 0 l0 1.5918 z M34.560109374999996 14.834 l-0.029297 0.67383 l-7.4414 0 c0.11719 1.6699 1.2305 2.4707 2.5684 2.4707 c1.0059 0 1.7871 -0.46875 2.168 -1.3574 l2.5781 0.38086 c-0.66406 2.0313 -2.4707 3.1934 -4.7266 3.1934 c-3.2422 0 -5.3613 -1.9141 -5.3613 -5.2148 s2.1777 -5.2344 5.2734 -5.2344 c2.8418 0 4.9609 1.5723 4.9707 5.0879 z M29.609409375 11.7383 c-1.2793 0 -2.168 0.5957 -2.4414 1.9336 l4.6094 0 c-0.14648 -1.2793 -1.0156 -1.9336 -2.168 -1.9336 z M46.142140624999996 14.834 l-0.029297 0.67383 l-7.4414 0 c0.11719 1.6699 1.2305 2.4707 2.5684 2.4707 c1.0059 0 1.7871 -0.46875 2.168 -1.3574 l2.5781 0.38086 c-0.66406 2.0313 -2.4707 3.1934 -4.7266 3.1934 c-3.2422 0 -5.3613 -1.9141 -5.3613 -5.2148 s2.1777 -5.2344 5.2734 -5.2344 c2.8418 0 4.9609 1.5723 4.9707 5.0879 z M41.191440625 11.7383 c-1.2793 0 -2.168 0.5957 -2.4414 1.9336 l4.6094 0 c-0.14648 -1.2793 -1.0156 -1.9336 -2.168 -1.9336 z M54.208971875 9.766 c2.4121 0 3.7402 1.25 3.7402 3.4766 l0 6.7578 l-2.8223 0 l0 -6.1523 c0 -1.3379 -0.83008 -1.8262 -1.7969 -1.8262 c-1.1621 0 -2.2168 0.58594 -2.2363 2.4414 l0 5.5371 l-2.8125 0 l0 -10.039 l2.8125 0 l0 1.1133 c0.70313 -0.83008 1.7871 -1.3086 3.1152 -1.3086 z M72.4902625 20.19531 c-4.1504 0 -7.2168 -2.8223 -7.2168 -7.2559 s3.0664 -7.2461 7.2168 -7.2461 c3.1445 0 5.6641 1.6113 6.6699 4.2871 l-2.7344 0.99609 c-0.625 -1.6406 -2.1191 -2.5879 -3.9355 -2.5879 c-2.4316 0 -4.2969 1.6992 -4.2969 4.5508 s1.8652 4.5605 4.2969 4.5605 c1.8164 0 3.3105 -0.95703 3.9355 -2.5977 l2.7344 0.99609 c-1.0059 2.6758 -3.5254 4.2969 -6.6699 4.2969 z M87.265628125 9.766 c2.2461 0 3.5938 1.25 3.5938 3.7598 l0 6.4746 l-2.8223 0 l0 -6.0156 c0 -1.4746 -0.82031 -1.9629 -1.8262 -1.9629 c-1.0449 0 -2.1875 0.51758 -2.207 2.4414 l0 5.5371 l-2.8125 0 l0 -15 l2.8125 0 l0 6.1621 c0.71289 -0.86914 1.8359 -1.3965 3.2617 -1.3965 z M101.796875 17.2754 c0 1.2305 0.11719 2.0117 0.24414 2.4512 l0 0.27344 l-2.627 0 l-0.22461 -1.0938 c-0.75195 0.9082 -2.0508 1.2891 -3.2227 1.2891 c-1.582 0 -3.125 -0.70313 -3.125 -2.793 c0 -2.0801 1.5527 -2.7832 3.6523 -3.2422 l1.6504 -0.37109 c0.71289 -0.16602 0.9668 -0.41016 0.9668 -0.82031 c0 -0.98633 -0.89844 -1.2598 -1.6895 -1.2598 c-1.0156 0 -1.7871 0.40039 -1.9629 1.5332 l-2.4902 -0.44922 c0.41992 -2.0801 1.9434 -3.0273 4.6094 -3.0273 c2.0117 0 4.2188 0.5957 4.2188 3.623 l0 3.8867 z M96.845675 18.291 c1.3379 0 2.4121 -0.88867 2.4121 -2.8809 l-2.3828 0.67383 c-0.78125 0.18555 -1.3477 0.45898 -1.3477 1.1328 c0 0.72266 0.5957 1.0742 1.3184 1.0742 z M107.226571875 11.5527 c0.50781 -0.88867 1.8262 -1.709 3.2813 -1.709 l0 2.5098 c-2.1289 0 -3.1445 0.625 -3.1445 2.7539 l0 4.8926 l-2.832 0 l0 -10.039 l2.6953 0 l0 1.5918 z M113.593725 8.457 c-0.88867 0 -1.6309 -0.72266 -1.6309 -1.6211 c0 -0.88867 0.74219 -1.6113 1.6309 -1.6113 c0.86914 0 1.6113 0.72266 1.6113 1.6113 c0 0.89844 -0.74219 1.6211 -1.6113 1.6211 z M112.158225 20 l0 -10.039 l2.832 0 l0 10.039 l-2.832 0 z M121.6406125 20 c-1.9531 0 -3.0664 -1.1328 -3.0664 -3.1348 l0 -4.7461 l-1.9727 0 l0 -2.1582 l0.63477 0 c1.0645 0 1.6504 -0.41016 1.6504 -1.9141 l0 -1.3281 l2.5391 0 l0 3.2422 l2.0703 0 l0 2.1582 l-2.0703 0 l0 4.4434 c0 0.89844 0.43945 1.2988 1.1621 1.2988 l0.9082 0 l0 2.1387 l-1.8555 0 z M132.24605 9.961 l2.8809 0 l-6.1914 14.766 l-2.8516 0 l2.2949 -5.1367 l-4.1309 -9.6289 l3.0664 0 l2.3926 6.6016 z"></path></g><g id="SvgjsG4717" featureKey="uwAHB0-0" transform="matrix(0.47269136024813424,0,0,0.47269136024813424,7.574577279903709,203.6743584715157)" fill="url(#SvgjsLinearGradient4727)"><path d="M4.86 16.87 q1.42 0.57 2.6 0.57 q1.24 0 1.97 -0.48 t0.73 -1.14 q0 -0.54 -0.43 -0.88 t-1.09 -0.51 t-1.74 -0.37 q-1.44 -0.24 -2.64 -0.62 t-2.18 -1.32 t-0.98 -2.54 q0 -2.36 1.73 -3.39 t4.07 -1.03 q1.8 0 3.13 0.49 t2.65 1.47 l-1.76 2.4 q-0.98 -0.7 -2.04 -1.1 t-2.1 -0.4 q-0.92 0 -1.72 0.33 t-0.8 1.11 q0 0.48 0.41 0.77 t0.9 0.42 t1.59 0.37 l0.72 0.14 q1.66 0.32 2.75 0.71 t1.89 1.31 t0.8 2.56 q0 2.22 -1.57 3.38 t-4.25 1.16 q-3.92 0 -6.6 -2.28 l1.68 -2.42 q0.86 0.72 2.28 1.29 z M41.224000000000004 20 l-3.14 0 l0 -5.68 l-6.86 0 l0 5.68 l-3.14 0 l0 -14.62 l3.14 0 l0 6.2 l6.86 0 l0 -6.2 l3.14 0 l0 14.62 z M63.308 4.92 l8.02 15.08 l-3.46 0 l-1.16 -2.24 l-6.82 0 l-1.12 2.24 l-3.48 0 z M65.188 15.059999999999999 l-1.88 -3.82 l-1.86 3.82 l3.74 0 z M84.572 20 l0 -14.62 l6.5 0 q1.56 0 2.76 0.64 t1.86 1.8 t0.66 2.64 q0 1.58 -0.8 2.82 t-2.18 1.82 q1.42 1.8 3.78 4.9 l-3.78 0 q-1.28 -1.6 -3.5 -4.56 l-2.16 0 l0 4.56 l-3.14 0 z M91.072 12.7 q0.82 0 1.48 -0.59 t0.66 -1.65 q0 -0.86 -0.46 -1.6 t-1.68 -0.74 l-3.36 0 l0 4.58 l3.36 0 z M114.676 11.38 l7 0 l0 2.76 l-7 0 l0 3.12 l7.92 0 l0 2.74 l-11.08 0 l0 -14.62 l11.08 0 l0 2.74 l-7.92 0 l0 3.26 z M162.70400000000004 4.92 l8.02 15.08 l-3.46 0 l-1.16 -2.24 l-6.82 0 l-1.12 2.24 l-3.48 0 z M164.58400000000003 15.059999999999999 l-1.88 -3.82 l-1.86 3.82 l3.74 0 z M187.92800000000003 20 l-3.14 0 l0 -15.08 l10.08 8.92 l0 -8.44 l3.16 0 l0 15.06 l-10.1 -8.78 l0 8.32 z M213.73200000000003 5.380000000000001 l6.04 0 q3.26 0 5.34 1.84 q1.12 0.98 1.7 2.37 t0.58 3.09 q0 1.66 -0.6 3.09 t-1.68 2.41 q-1 0.88 -2.37 1.35 t-2.97 0.47 l-6.04 0 l0 -14.62 z M219.77200000000002 17.259999999999998 q1.88 0 3.15 -0.98 t1.27 -3.58 t-1.28 -3.58 t-3.14 -0.98 l-2.88 0 l0 9.12 l2.88 0 z M260.84000000000003 20 l0 -14.62 l6.5 0 q1.56 0 2.76 0.64 t1.86 1.8 t0.66 2.64 q0 1.58 -0.8 2.82 t-2.18 1.82 q1.42 1.8 3.78 4.9 l-3.78 0 q-1.28 -1.6 -3.5 -4.56 l-2.16 0 l0 4.56 l-3.14 0 z M267.34000000000003 12.7 q0.82 0 1.48 -0.59 t0.66 -1.65 q0 -0.86 -0.46 -1.6 t-1.68 -0.74 l-3.36 0 l0 4.58 l3.36 0 z M290.944 11.38 l7 0 l0 2.76 l-7 0 l0 3.12 l7.92 0 l0 2.74 l-11.08 0 l0 -14.62 l11.08 0 l0 2.74 l-7.92 0 l0 3.26 z M324.858 19.18 q-1.85 1.1 -4.03 1.1 q-2.14 0 -3.95 -1.02 t-2.87 -2.76 t-1.06 -3.8 q0 -2.04 1.06 -3.78 t2.87 -2.76 t3.95 -1.02 q2.16 0 4.02 1.09 t2.92 2.91 l-2.94 1.14 q-0.7 -1 -1.77 -1.64 t-2.23 -0.64 q-1.28 0 -2.36 0.65 t-1.71 1.73 t-0.63 2.32 t0.63 2.33 t1.71 1.74 t2.36 0.65 q1.16 0 2.23 -0.65 t1.77 -1.67 l2.94 1.14 q-1.06 1.84 -2.91 2.94 z M345.47200000000004 11.38 l7 0 l0 2.76 l-7 0 l0 3.12 l7.92 0 l0 2.74 l-11.08 0 l0 -14.62 l11.08 0 l0 2.74 l-7.92 0 l0 3.26 z M369.0760000000001 20 l0 -14.62 l3.16 0 l0 14.62 l-3.16 0 z M394.1000000000001 20.36 l-7.38 -14.96 l3.48 0 l3.9 8.08 l3.92 -8.08 l3.5 0 z M418.70400000000006 11.38 l7 0 l0 2.76 l-7 0 l0 3.12 l7.92 0 l0 2.74 l-11.08 0 l0 -14.62 l11.08 0 l0 2.74 l-7.92 0 l0 3.26 z M475.6520000000001 20 l-3.18 0 l0 -6.98 l-4.48 5.2 l-4.48 -5.2 l0 6.98 l-3.18 0 l0 -15.08 l7.66 8.64 l7.66 -8.64 l0 15.08 z M494.57600000000014 19.26 q-1.8 -1.02 -2.86 -2.77 t-1.06 -3.81 q0 -2.04 1.06 -3.79 t2.86 -2.77 t3.94 -1.02 t3.96 1.02 t2.88 2.77 t1.06 3.79 q0 2.06 -1.06 3.81 t-2.88 2.77 t-3.96 1.02 t-3.94 -1.02 z M496.1560000000001 8.63 q-1.08 0.65 -1.72 1.73 t-0.64 2.32 t0.64 2.33 t1.72 1.75 t2.36 0.66 t2.37 -0.66 t1.72 -1.75 t0.63 -2.33 t-0.63 -2.32 t-1.72 -1.73 t-2.37 -0.65 t-2.36 0.65 z M521.3800000000001 20 l0 -14.62 l6.5 0 q1.56 0 2.76 0.64 t1.86 1.8 t0.66 2.64 q0 1.58 -0.8 2.82 t-2.18 1.82 q1.42 1.8 3.78 4.9 l-3.78 0 q-1.28 -1.6 -3.5 -4.56 l-2.16 0 l0 4.56 l-3.14 0 z M527.8800000000001 12.7 q0.82 0 1.48 -0.59 t0.66 -1.65 q0 -0.86 -0.46 -1.6 t-1.68 -0.74 l-3.36 0 l0 4.58 l3.36 0 z M551.4840000000002 11.38 l7 0 l0 2.76 l-7 0 l0 3.12 l7.92 0 l0 2.74 l-11.08 0 l0 -14.62 l11.08 0 l0 2.74 l-7.92 0 l0 3.26 z"></path></g>
			</g>
		</svg>
	